<mxfile host="app.diagrams.net" modified="2023-05-17T21:13:42.775Z" agent="Mozilla/5.0 (Macintosh; Intel Mac OS X 10_15_7) AppleWebKit/605.1.15 (KHTML, like Gecko) Version/16.4 Safari/605.1.15" version="21.3.2" etag="e1v95m4diDeAhWZvxx5q" type="github">
  <diagram name="Страница 1" id="czCGPmyV_3BRiJzykNfN">
    <mxGraphModel>
      <root>
        <mxCell id="0" />
        <mxCell id="1" parent="0" />
      </root>
    </mxGraphModel>
  </diagram>
</mxfile>
